# xmcd CD database file
#
# Track frame offsets:
#	150
#	18092
#	36476
#	55589
#	80664
#	98798
#	119034
#	136380
#	160891
#	181787
#	195567
#	217543
#	232462
#
# Disc length: 3330 seconds
#
# Revision: 0
# Processed by: cddbd v1.5.1PL0 Copyright (c) Steve Scherf et al.
# Submitted via: CDex 1.40Beta6
#
DISCID=ad0d000d
DTITLE=Sara Evans - Restless
DYEAR=2003
DGENRE=Country
TTITLE0=Rocking Horse
TTITLE1=Backseat of a Greyhound Bus
TTITLE2=Restless
TTITLE3=Niagara
TTITLE4=Perfect
TTITLE5=Need to Be Next to You
TTITLE6=To Be Happy
TTITLE7=Tonight
TTITLE8=Otis Redding
TTITLE9=Feel It Comin' On
TTITLE10=Give In
TTITLE11=Big Cry
TTITLE12=Suds In the Bucket
EXTD=
EXTT0=
EXTT1=
EXTT2=
EXTT3=
EXTT4=
EXTT5=
EXTT6=
EXTT7=
EXTT8=
EXTT9=
EXTT10=
EXTT11=
EXTT12=
PLAYORDER=
